<svg id="Layer_1" data-name="Layer 1" xmlns="http://www.w3.org/2000/svg" viewBox="0 0 389.83 18.02">
  <defs/>
  <path class="cls-1" d="M193.68 9.84s-1.78-4-4.66-2.74.82 9.19 4.94 8.91 7.13-7.4 4.66-9.32-4.94 3.15-4.94 3.15zM198.48 17.26a25.54 25.54 0 0 1 2.59-1.35c.88-.41 1.76-.78 2.66-1.13s1.81-.68 2.71-1 1.82-.62 2.75-.9c3.66-1.18 7.4-2.06 11.15-2.91 7.51-1.64 15.12-2.74 22.74-3.65A430 430 0 0 1 289 3.87a193.94 193.94 0 0 1 23 1.7 164 164 0 0 1 22.5 4.9c3.7 1 7.36 2.18 11.07 3.08a57.46 57.46 0 0 0 11.22 1.89A34.1 34.1 0 0 0 368 14.19a53.44 53.44 0 0 0 10.47-4.44.34.34 0 0 1 .46.14.33.33 0 0 1-.13.44 45.71 45.71 0 0 1-10.53 4.78 31.19 31.19 0 0 1-11.52 1.34 57.22 57.22 0 0 1-11.36-2.13c-3.7-1-7.38-2.11-11.07-3.09A167.71 167.71 0 0 0 289 5.17c-15.28.15-30.59.84-45.8 2.41-7.57.86-15.2 1.89-22.64 3.42-3.74.79-7.46 1.63-11.12 2.73q-1.38.38-2.73.84c-.9.3-1.81.59-2.7.94a34.83 34.83 0 0 0-5.16 2.32.34.34 0 0 1-.46-.12.34.34 0 0 1 .09-.45z" transform="translate(0 -.06)"/>
  <path class="cls-1" d="M381.28 3.28c-.66 1.08-1.38 2.05-2 3a2.45 2.45 0 0 0-.11 2.9 3.35 3.35 0 0 0 3.19.77c.6-.13 1.2-.29 1.81-.37s1.22-.22 1.83-.31a.33.33 0 0 1 .38.29.34.34 0 0 1-.17.35 7.72 7.72 0 0 1-1.84.69 6.12 6.12 0 0 1-2 .21c-.66-.06-1.31 0-2-.11a3.52 3.52 0 0 1-2-.8 2.82 2.82 0 0 1-.83-2.12 6 6 0 0 1 .54-2.09 5.93 5.93 0 0 1 2.72-2.91.33.33 0 0 1 .46.14.34.34 0 0 1 0 .34z" transform="translate(0 -.06)"/>
  <path class="cls-1" d="M383.89 5.8a2.25 2.25 0 0 1-1.06 1.35c-.48.3-.88.7-1.34 1a3.61 3.61 0 0 0-1.32 1.06 2.43 2.43 0 0 1-1.32 1 .36.36 0 0 1-.46-.2.39.39 0 0 1 0-.3 2.48 2.48 0 0 1 1.2-1.19c.55-.23.83-.77 1.2-1.19s.82-.77 1.18-1.22a2.23 2.23 0 0 1 1.46-.9.41.41 0 0 1 .46.33.55.55 0 0 1 0 .26zM381.7.4a1 1 0 0 0-.12 1 .7.7 0 0 0 .78.37c.4-.09.55-.36.7-.72.32-.78-.96-1.41-1.36-.65zM385.71 2.92a1.09 1.09 0 0 0-.41.27c-.83.84.57 2 1.2 1a1.35 1.35 0 0 0 .15-.26.73.73 0 0 0-.94-1.01zM388.36 7.87a1.6 1.6 0 0 0-.83 1 .87.87 0 0 0 .77 1.13 1.49 1.49 0 0 0 1.36-.67 1 1 0 0 0-1.3-1.46zM329.13 5a1 1 0 0 0-.11 2 1 1 0 0 0 .11-2zM335.57 8.12a4.19 4.19 0 0 0 0 .5.87.87 0 0 0 1.73.1.63.63 0 0 1 .06-.27.9.9 0 1 0-1.79-.33zM346.2 10.62a1.07 1.07 0 0 0-2.05-.11 4.66 4.66 0 0 0-.12.65 1.11 1.11 0 0 0 2.21.13c0-.23-.02-.44-.04-.67zM328.09 12.87a5.88 5.88 0 0 0-.07-1 .85.85 0 0 0-1.56-.43 8 8 0 0 0-.58.85 1.19 1.19 0 1 0 2.21.61zM335.71 14.75c.68-1.05-.78-2.25-1.55-1.22a2 2 0 0 0-.58 1.53.91.91 0 0 0 1.44.62 3.13 3.13 0 0 0 .69-.93zM344.68 17.19a.15.15 0 0 0 0-.06c.83-1.15-1-2.63-1.83-1.46a1.71 1.71 0 0 0-.33 1.68 1.12 1.12 0 0 0 2.16-.16zM188.41 17.77a18.66 18.66 0 0 0-4.88-2.66c-.88-.35-1.76-.7-2.68-1s-1.79-.61-2.71-.84l-2.76-.75-2.78-.63-1.4-.32-1.4-.26-2.8-.5q-5.64-1-11.34-1.57c-1.9-.25-3.8-.42-5.7-.58s-3.8-.37-5.71-.49c-3.82-.21-7.63-.51-11.45-.62l-5.74-.22c-1.91-.07-3.82-.07-5.73-.1-7.65-.19-15.3-.09-22.93.4S83.16 8.91 75.58 10s-15.13 2.35-22.64 3.86c-3.76.73-7.52 1.47-11.3 2.13a104 104 0 0 1-11.44 1.43 36.63 36.63 0 0 1-11.56-.88 18.77 18.77 0 0 1-5.37-2.34A18.85 18.85 0 0 1 9 10.26a.36.36 0 0 1 0-.48.34.34 0 0 1 .47.05 18 18 0 0 0 9.4 5.81 35.69 35.69 0 0 0 11.26.73 216.53 216.53 0 0 0 22.67-3.32c15-2.81 30.18-5.59 45.52-6.53 7.66-.53 15.35-.63 23-.51 1.92 0 3.84 0 5.76.06l5.75.18c3.83.06 7.66.38 11.49.58 1.92.11 3.83.32 5.74.48s3.83.33 5.73.58c3.82.43 7.62 1 11.41 1.7 1.88.4 3.78.69 5.64 1.2l2.81.7 2.77.82c.93.25 1.83.6 2.74.92s1.81.7 2.69 1.08a18.66 18.66 0 0 1 5 3 .32.32 0 0 1 0 .47.33.33 0 0 1-.46 0z" transform="translate(0 -.06)"/>
  <path class="cls-1" d="M10.29 3.15a6 6 0 0 1 1 3.87 5.85 5.85 0 0 1-.55 2.08 2.76 2.76 0 0 1-1.76 1.45 3.45 3.45 0 0 1-2.13-.28c-.7-.27-1.24-.6-1.85-.88a6.07 6.07 0 0 1-1.61-1.13 7.6 7.6 0 0 1-1.26-1.5.33.33 0 0 1 .1-.47.35.35 0 0 1 .39 0c.49.38 1 .77 1.45 1.17a17.72 17.72 0 0 1 1.4 1.2 3.34 3.34 0 0 0 3.16.88A2.45 2.45 0 0 0 10 7c-.1-1.14-.26-2.34-.3-3.6A.36.36 0 0 1 10 3a.35.35 0 0 1 .29.15z" transform="translate(0 -.06)"/>
  <path class="cls-1" d="M6.41 3.57A2.35 2.35 0 0 1 7.46 5c.18.56.47 1.08.67 1.63a3.91 3.91 0 0 0 .69 1.62 2.68 2.68 0 0 1 .7 1.62.36.36 0 0 1-.32.4.38.38 0 0 1-.29-.1 2.65 2.65 0 0 1-.86-1.54 4 4 0 0 0-.85-1.52c-.32-.5-.55-1-.89-1.53a2.33 2.33 0 0 1-.5-1.71.39.39 0 0 1 .42-.36.35.35 0 0 1 .18.06zM10.14.4a1 1 0 0 1 .12 1 .7.7 0 0 1-.78.37c-.4-.09-.55-.36-.69-.72-.33-.78.95-1.41 1.35-.65zM5.13.92a1 1 0 0 1 .41.27c.83.84-.57 2-1.2 1A1.35 1.35 0 0 1 4.19 2 .73.73 0 0 1 5.13.92zM1.48 3.87a1.6 1.6 0 0 1 .83 1A.87.87 0 0 1 1.54 6a1.49 1.49 0 0 1-1.36-.69 1 1 0 0 1 1.3-1.44zM75.71 6a1 1 0 0 1 .11 2 1 1 0 0 1-.11-2zM66.27 8.12a4.19 4.19 0 0 1 0 .5.87.87 0 0 1-1.73.1.63.63 0 0 0-.06-.27.9.9 0 1 1 1.79-.33zM53.64 9.62a1.07 1.07 0 0 1 2-.11 4.66 4.66 0 0 1 .12.65 1.11 1.11 0 0 1-2.21.13c.05-.23.07-.44.09-.67zM76.92 13.21a5.78 5.78 0 0 1-.26-1 .84.84 0 0 1 1.34-.9 5.58 5.58 0 0 1 .82.63 1.18 1.18 0 1 1-1.9 1.26zM66.12 14.74c-.67-1.06.81-2.25 1.57-1.2a2 2 0 0 1 .57 1.53.92.92 0 0 1-1.45.61 3 3 0 0 1-.69-.94zM55 16.75a.42.42 0 0 1 0-.06c-.32-1.38 1.93-2 2.24-.63a1.69 1.69 0 0 1-.24 1.67 1.13 1.13 0 0 1-2-.98z" transform="translate(0 -.06)"/>
</svg>