<svg xmlns="http://www.w3.org/2000/svg" viewBox="0 0 24.66 196.02">
  <defs/>
  <g id="Objects">
    <path class="cls-1" d="M7.05 195.34a12.21 12.21 0 0 0 6.2-4.54 10.19 10.19 0 0 0 1.49-7.4 31.85 31.85 0 0 0-2.42-7.58c-1.05-2.48-2.27-4.91-3.15-7.55a13.43 13.43 0 0 1-.81-4.18 5.87 5.87 0 0 1 .43-2.24 4.89 4.89 0 0 1 1.39-1.85 7.08 7.08 0 0 1 1.94-1.1 4.61 4.61 0 0 1 2.3-.32 2.77 2.77 0 0 1 2 1.4 3.46 3.46 0 0 1 .33 2.37 3.37 3.37 0 0 1-1.22 2 3.47 3.47 0 0 1-2.23.73 5.93 5.93 0 0 1-4-1.8 7.76 7.76 0 0 1-2-3.8 11.7 11.7 0 0 1-.1-4.25 20.16 20.16 0 0 1 1.07-4.07c.49-1.32 1-2.48 1.41-3.78a54.26 54.26 0 0 0 1.93-7.73 68.08 68.08 0 0 0 .94-16 60.19 60.19 0 0 0-1-8 19.24 19.24 0 0 0-2.84-7.2 5 5 0 0 0-2.63-2.12c-.46-.07-.68 0-.86.38A1 1 0 0 0 5.3 108a2.5 2.5 0 0 0 1.39.63 7.06 7.06 0 0 0 1.84 0 10.48 10.48 0 0 0 3.63-1.15 9.21 9.21 0 0 0 4.72-5.76 11.24 11.24 0 0 0 .31-3.84 21.09 21.09 0 0 0-.82-3.88c-.7-2.62-1.47-5.23-2.13-7.87s-1.19-5.3-1.75-8c-1-5.3-1.91-10.67-2.49-16.13a72.34 72.34 0 0 1-.38-8.21 16.67 16.67 0 0 1 2-8.13 8.19 8.19 0 0 1 3.08-3.13 3.65 3.65 0 0 1 2.4-.4 2.74 2.74 0 0 1 2 1.67 2.48 2.48 0 0 1 .22 1.38 2.75 2.75 0 0 1-.56 1.25 4.7 4.7 0 0 1-1.94 1.43 5.53 5.53 0 0 1-4.65-.1 4.53 4.53 0 0 1-1.78-1.72 6.31 6.31 0 0 1-.77-2.23 12.68 12.68 0 0 1 .16-4.36 28.08 28.08 0 0 1 1.17-4l1.38-3.82c1.8-5.1 3.58-10.21 4.94-15.41a48.59 48.59 0 0 0 1.43-7.89A13.73 13.73 0 0 0 17.51.65a.39.39 0 0 1 .15-.52.41.41 0 0 1 .52.14 14.87 14.87 0 0 1 1.63 8.13 45.39 45.39 0 0 1-1.2 8.15A157.4 157.4 0 0 1 14 32.19l-1.32 3.86a24.7 24.7 0 0 0-1 3.78 11.21 11.21 0 0 0-.19 3.72A3.59 3.59 0 0 0 13 46.26a3.83 3.83 0 0 0 3.22.16 3.18 3.18 0 0 0 1.36-.88 1.35 1.35 0 0 0 .29-.57 1 1 0 0 0-.08-.6 1.33 1.33 0 0 0-1-.89 2.33 2.33 0 0 0-1.53.26 6.3 6.3 0 0 0-2.55 2.59A15.4 15.4 0 0 0 11 53.85a60 60 0 0 0 .47 8c.64 5.35 1.63 10.67 2.75 16 .53 2.65 1.15 5.28 1.67 7.94s1 5.32 1.62 8a27.78 27.78 0 0 1 .77 4.08 12.28 12.28 0 0 1-.33 4.22 10.49 10.49 0 0 1-1.95 3.76 11.09 11.09 0 0 1-3.28 2.74A11.58 11.58 0 0 1 8.7 110a8.24 8.24 0 0 1-2.22 0 3.75 3.75 0 0 1-2.24-1 2.27 2.27 0 0 1-.58-1.34 2.94 2.94 0 0 1 .23-1.33 2.16 2.16 0 0 1 1-1.13 2.32 2.32 0 0 1 1.44-.2 4.59 4.59 0 0 1 2.18 1 8.91 8.91 0 0 1 1.49 1.65 20.93 20.93 0 0 1 3.19 7.78 76 76 0 0 1 1.14 8.17 58.59 58.59 0 0 1-.72 16.45 44.41 44.41 0 0 1-2.35 7.95c-1 2.62-2.5 4.87-2.89 7.46a7.87 7.87 0 0 0 1.74 7.12 4.71 4.71 0 0 0 3.23 1.5 2.29 2.29 0 0 0 2.35-1.92 2.35 2.35 0 0 0-.24-1.58 1.6 1.6 0 0 0-1.21-.79A4.94 4.94 0 0 0 11 161a3.84 3.84 0 0 0-1.34 3.11 12.32 12.32 0 0 0 .75 3.76c1.72 5 4.62 9.82 5.45 15.4a11.26 11.26 0 0 1-1.77 8.13 12.92 12.92 0 0 1-6.84 4.7.39.39 0 0 1-.48-.26.38.38 0 0 1 .24-.47z" transform="translate(-.04 -.08)"/>
    <path class="cls-1" d="M13.78 137.46a8.7 8.7 0 0 1 2.1 3.18c.49 1.17 1.06 2.31 1.49 3.5a30 30 0 0 0 1.22 3.61 7.34 7.34 0 0 1 .57 1.83 8.23 8.23 0 0 1 .18 1.92.34.34 0 0 1-.34.34.34.34 0 0 1-.32-.22c-.22-.59-.36-1.18-.53-1.78a13.52 13.52 0 0 1-.38-1.81 12.51 12.51 0 0 0-1.35-3.46c-.54-1.12-1-2.26-1.67-3.32a12.49 12.49 0 0 1-1.53-3.41.36.36 0 0 1 .24-.43.38.38 0 0 1 .32.05zM12.86 147.77a1.68 1.68 0 0 0 3.08 1.34 1.68 1.68 0 0 0-3.08-1.34zM14.41 153.65a1.5 1.5 0 0 0 2.76 1.19 1.5 1.5 0 0 0-2.76-1.19zM19.38 155.61a1.63 1.63 0 0 0 3 1.29 1.63 1.63 0 0 0-3-1.29zM22 151a1.41 1.41 0 0 0 2.59 1.12A1.41 1.41 0 0 0 22 151zM21 143.88a1.58 1.58 0 0 0-.28 2.3l.07.14a1.52 1.52 0 0 0 2.72-.69v-.27a1.61 1.61 0 0 0-2.51-1.48zM10.45 40.24a8.72 8.72 0 0 1-2-3.25c-.44-1.19-1-2.35-1.36-3.56A32.57 32.57 0 0 0 6 29.78a7.07 7.07 0 0 1-.51-1.85A8.23 8.23 0 0 1 5.4 26a.34.34 0 0 1 .35-.33.34.34 0 0 1 .31.23c.2.6.32 1.19.46 1.79a12.28 12.28 0 0 1 .32 1.83 12.73 12.73 0 0 0 1.22 3.51c.5 1.13.95 2.29 1.56 3.38a12.84 12.84 0 0 1 1.38 3.5.36.36 0 0 1-.26.42.34.34 0 0 1-.29-.09zM11.75 30a1.69 1.69 0 0 0-3-1.45 1.69 1.69 0 0 0 3 1.45zM10.41 24a1.51 1.51 0 0 0-2.72-1.3 1.51 1.51 0 0 0 2.72 1.3zM5.51 21.9a1.63 1.63 0 0 0-2.94-1.4 1.63 1.63 0 0 0 2.94 1.4zM2.73 26.43a1.41 1.41 0 0 0-2.54-1.21 1.41 1.41 0 0 0 2.54 1.21zM3.44 33.56a1.59 1.59 0 0 0 .36-2.29l-.07-.14A1.52 1.52 0 0 0 1 31.7a2.51 2.51 0 0 0 0 .3 1.6 1.6 0 0 0 2.44 1.56zM10.38 185.7a1.35 1.35 0 0 0 .59 2.24l.21.05a1.23 1.23 0 0 0 1.49-1.5v-.2a1.36 1.36 0 0 0-2.29-.59zM7.79 129.08a1.65 1.65 0 0 0 3.29 0 1.65 1.65 0 0 0-3.29 0zM8.27 121.55a1.17 1.17 0 0 0 2.33 0 1.17 1.17 0 0 0-2.33 0zM18.65 89.41a1.16 1.16 0 0 0 2.31 0 1.16 1.16 0 0 0-2.31 0zM17.4 83.15a1.89 1.89 0 0 0 3.78 0 1.89 1.89 0 0 0-3.78 0zM16 75.22a1.93 1.93 0 0 0 .39 3l.13.08a1.89 1.89 0 0 0 2.57-2.56 1 1 0 0 1-.08-.14 1.94 1.94 0 0 0-3.01-.38zM12.82 60.31a1.3 1.3 0 0 0 2.59 0 1.3 1.3 0 0 0-2.59 0z" transform="translate(-.04 -.08)"/>
  </g>
</svg>